# xmcd
#
# Track frame offsets:
#  182
#  14312
#  28572
#  37752
#  46925
#  59825
#  69382
#  92565
#  106162
#  112517
#  131185
#
# Disc length: 1929 seconds
#
# Revision: 4
# Processed by: cddbd v1.5.1PL2 Copyright (c) Steve Scherf et al.
# Submitted via: Collectorz.com_Music_Collector 6.11
#
DISCID=8307870b
DTITLE=Brown, Clarence "Gatemouth" - San Antonio Ballbuster
DYEAR=1992
DGENRE=Blues
TTITLE0=May The Bird Of Paradise Fly Up Your Nose
TTITLE1=Williamson - Cross My Heart
TTITLE2=Williamson - Don't Start Me Talking
TTITLE3=Gate's Salty Blues
TTITLE4=My Time Is Expensive
TTITLE5=Williamson - Ninety Nine
TTITLE6=Oden - Goin' Down Slow
TTITLE7=Long Way Home
TTITLE8=Clarence 'Gatemouth' Brown - Tippin In
TTITLE9=For Now So Long
TTITLE10=May The Bird Of Paradise Fly Up Your Nose
EXTD=
EXTT0=
EXTT1=
EXTT2=
EXTT3=
EXTT4=
EXTT5=
EXTT6=
EXTT7=
EXTT8=
EXTT9=
EXTT10=
PLAYORDER=
